# xmcd CD database file
#
# Track frame offsets:
#	150
#	16713
#	32610
#	51263
#	68238
#	86523
#	101898
#	119040
#	139045
#	152318
#	168588
#	187008
#	204223
#	220130
#	233695
#	245230
#	261865
#	274805
#	296653
#
# Disc length: 4249 seconds
#
# Revision: 1
# Processed by: cddbd v1.5.2PL0 Copyright (c) Steve Scherf et al.
# Submitted via: CDex 1.70beta2
#
DISCID=16109713
DTITLE=キテレツ大百科 - キテレツ大百科 SUPER BEST
DYEAR=2004
DGENRE=Anime
TTITLE0=守谷香 - お嫁さんになってあげないゾ
TTITLE1=守谷香 - マジカルBoy マジカルHeart
TTITLE2=坂上香織 - レースのカーディガン
TTITLE3=内田順子 - ボディーだけレディー
TTITLE4=内田順子 - コロ助ROCK
TTITLE5=森恵 - 夢みる時間
TTITLE6=森恵 - フェルトのペンケース
TTITLE7=あんしんパパ - はじめてのチュウ
TTITLE8=藤田淑子 - メリーはただのともだち
TTITLE9=CHICKS - すいみん不足
TTITLE10=YUKA - お料理行進曲
TTITLE11=YUKA - HAPPY BIRTHDAY
TTITLE12=TOKIO - うわさのキッス
TTITLE13=堀江美都子 - キテレツ大百科
TTITLE14=山田恭子 - コロ助まちをゆく
TTITLE15=藤田淑子 - キミと結婚したら！（キテレツのテーマ）
TTITLE16=小山茉美 - ドキドキFRIENDLY（コロ助のテーマ）
TTITLE17=内田順子 - コロ助ROCK '91
TTITLE18=あんしんパパ - はじめてのチュウ（ニューヴァージョン）
EXTD=YEAR: 2004
EXTT0=
EXTT1=
EXTT2=
EXTT3=
EXTT4=
EXTT5=
EXTT6=
EXTT7=
EXTT8=
EXTT9=
EXTT10=
EXTT11=
EXTT12=
EXTT13=
EXTT14=
EXTT15=
EXTT16=
EXTT17=
EXTT18=
PLAYORDER=
